<?xml version="1.0" encoding="utf-8"?>
<!-- Generator: Adobe Illustrator 16.0.0, SVG Export Plug-In . SVG Version: 6.00 Build 0)  -->
<!DOCTYPE svg PUBLIC "-//W3C//DTD SVG 1.1//EN" "http://www.w3.org/Graphics/SVG/1.1/DTD/svg11.dtd">
<svg version="1.1" id="Layer_1" text-rendering="optimizeLegibility"
	 xmlns="http://www.w3.org/2000/svg" xmlns:xlink="http://www.w3.org/1999/xlink" x="0px" y="0px" width="118px" height="118.6px"
	 viewBox="0 0 118 118.6" enable-background="new 0 0 118 118.6" xml:space="preserve">
<path fill="#00A0FC" d="M56.3,7c-1-0.5-1.9-1-2.8-1.4C45.6,1.9,38.9,0,30.3,0C19.9,0,11.8,2.7,2.8,8C2.1,8.4,1.8,9.2,2.2,9.8
	l12.7,25.6c0.2,0.4,0.7,0.7,1.2,0.802c0.1,0,0.2,0,0.3,0c0.4,0,0.8-0.102,1.1-0.4c3.6-3,8.2-4.6,12.9-4.6c3.2,0,6.4,0.8,9.3,2.3
	c0.9,0.5,1.8,1,2.6,1.6c0.3,0.2,0.7,0.3,1,0.3c0.1,0,0.2,0,0.3,0c0.5-0.1,0.9-0.398,1.1-0.8L56.9,8.8C57.3,8.2,57,7.4,56.3,7z
	 M43.1,33.2C42.3,32.6,41.4,32.1,40.5,31.6c-3.2-1.6-6.7-2.5-10.2-2.5c-5.1,0-10,1.7-13.9,4.8L4.2,9.5C13.4,4.2,21,2,30.3,2
	C38,2,44.5,3.6,52.6,7.4C53.3,7.7,54.1,8.1,54.8,8.5L43.1,33.2z"/>
<polygon fill="#00A0FC" points="16.5,23.1 17.7,24.5 18.4,16.6 17.1,17.5 "/>
<polygon fill="#00A0FC" points="29.2,8.9 30.6,7.5 22.5,7.5 23.7,8.9 "/>
<polygon fill="#00A0FC" points="22.4,17.5 21.2,16.6 20.5,24.5 21.9,23.1 "/>
<polygon fill="#00A0FC" points="17.3,14.7 18.5,15.6 19.2,7.7 17.8,9.1 "/>
<polygon fill="#00A0FC" points="34.7,9.1 33.5,7.7 32.8,15.6 34.2,14.7 "/>
<polygon fill="#00A0FC" points="40.7,8.9 42.1,7.5 34,7.5 35.2,8.9 "/>
<polygon fill="#00A0FC" points="22.6,15.5 21.7,16.2 22.5,16.8 28.9,16.8 29.8,16.2 29,15.5 "/>
<polygon fill="#00A0FC" points="33.9,17.5 32.7,16.6 32,24.5 33.4,23.1 "/>
<polygon fill="#00A0FC" points="33.9,23.3 32.5,24.7 40.5,24.7 39.4,23.3 "/>
<polygon fill="#00A0FC" points="39.5,23.1 40.7,24.5 41.4,16.6 40,17.5 "/>
<polygon fill="#00A0FC" points="40.6,14.7 41.8,15.6 42.5,7.7 41.1,9.1 "/>
<polygon fill="#00A0FC" points="29.1,14.7 30.3,15.6 31,7.7 29.6,9.1 "/>
<polygon fill="#00A0FC" points="22.4,23.3 21,24.7 29,24.7 27.9,23.3 "/>
<rect x="3.75" y="112.6" fill="#575757" width="23" height="3"/>
<text transform="matrix(0.9901 0 0 1 -15.9985 88.136)" font-family="'ToyotaDisplay-Bold'" font-size="23">   </text>
<g enable-background="new    ">
	<path fill="#575757" d="M2.307,71.553h6.786c1.29,0,2.44,0.199,3.45,0.599c1.009,0.398,1.859,0.958,2.55,1.678
		c0.69,0.722,1.218,1.588,1.583,2.6c0.365,1.012,0.547,2.131,0.547,3.357c0,1.212-0.164,2.328-0.49,3.348
		c-0.327,1.02-0.824,1.9-1.492,2.645s-1.514,1.322-2.539,1.736s-2.228,0.621-3.609,0.621H2.307V71.553z M8.934,85.215
		c1.503,0,2.66-0.417,3.473-1.253c0.812-0.836,1.218-2.189,1.218-4.061c0-1.886-0.41-3.262-1.23-4.128
		c-0.819-0.866-1.974-1.3-3.461-1.3H5.723v10.741H8.934z"/>
	<path fill="#575757" d="M19.705,71.553h3.461v16.583h-3.461V71.553z"/>
	<path fill="#575757" d="M26.195,84.365c1.958,0.797,3.742,1.195,5.351,1.195c1.23,0,2.125-0.191,2.688-0.574
		c0.562-0.384,0.842-0.905,0.842-1.564c0-0.368-0.083-0.679-0.25-0.932s-0.402-0.463-0.706-0.633
		c-0.304-0.168-0.671-0.311-1.104-0.426c-0.433-0.114-0.908-0.218-1.423-0.311c-0.683-0.122-1.363-0.279-2.038-0.471
		c-0.676-0.191-1.275-0.464-1.799-0.816c-0.523-0.354-0.949-0.805-1.275-1.357c-0.327-0.552-0.49-1.25-0.49-2.093
		c0-0.735,0.121-1.415,0.364-2.036c0.243-0.621,0.634-1.161,1.173-1.621c0.539-0.46,1.241-0.82,2.106-1.081s1.913-0.391,3.143-0.391
		c1.093,0,2.121,0.114,3.085,0.345c0.964,0.23,1.818,0.498,2.562,0.805l-0.843,2.807c-0.911-0.322-1.776-0.571-2.596-0.748
		c-0.82-0.176-1.617-0.264-2.391-0.264c-1.048,0-1.818,0.156-2.312,0.471c-0.494,0.314-0.74,0.771-0.74,1.369
		c0,0.644,0.285,1.104,0.854,1.38s1.362,0.506,2.38,0.69c0.698,0.137,1.396,0.303,2.095,0.494s1.329,0.471,1.89,0.84
		c0.562,0.367,1.017,0.847,1.367,1.438c0.349,0.59,0.523,1.353,0.523,2.288c0,0.812-0.156,1.549-0.467,2.208
		s-0.767,1.223-1.366,1.69c-0.6,0.468-1.34,0.827-2.22,1.081c-0.881,0.253-1.898,0.379-3.052,0.379
		c-0.698,0-1.366-0.042-2.004-0.126c-0.638-0.085-1.226-0.188-1.765-0.311c-0.539-0.122-1.025-0.257-1.458-0.403
		c-0.433-0.145-0.793-0.279-1.082-0.402L26.195,84.365z"/>
	<path fill="#575757" d="M41.042,71.553h6.285c0.789,0,1.537,0.101,2.243,0.299c0.706,0.2,1.324,0.518,1.856,0.954
		c0.531,0.438,0.953,1.001,1.264,1.691c0.311,0.689,0.466,1.518,0.466,2.484c0,0.843-0.151,1.602-0.455,2.276
		s-0.721,1.246-1.252,1.714c-0.531,0.467-1.161,0.828-1.89,1.08c-0.729,0.254-1.518,0.38-2.368,0.38h-2.755v5.704h-3.393V71.553z
		 M46.895,79.534c0.333,0,0.668-0.039,1.002-0.115c0.333-0.076,0.634-0.215,0.899-0.414s0.479-0.46,0.638-0.782
		c0.159-0.321,0.239-0.728,0.239-1.219c0-0.552-0.076-1.001-0.228-1.346s-0.361-0.613-0.626-0.806
		c-0.266-0.191-0.566-0.317-0.899-0.379c-0.334-0.061-0.684-0.092-1.048-0.092h-2.437v5.152H46.895z"/>
	<path fill="#575757" d="M55.526,71.553h3.393v13.662h8.585v2.921H55.526V71.553z"/>
	<path fill="#575757" d="M72.719,74.52c0.15-0.521,0.338-0.985,0.557-1.392c0.221-0.406,0.494-0.747,0.82-1.023
		c0.326-0.275,0.725-0.486,1.195-0.633c0.471-0.145,1.025-0.218,1.662-0.218c0.623,0,1.154,0.069,1.596,0.207
		c0.439,0.138,0.811,0.341,1.115,0.609c0.303,0.269,0.559,0.595,0.762,0.978c0.205,0.383,0.385,0.82,0.535,1.311l3.986,13.363
		l-3.416,0.76l-1.48-5.061h-6.467l-1.504,5.061l-3.324-0.76L72.719,74.52z M79.209,80.499l-1.549-5.543
		c-0.092-0.306-0.205-0.509-0.342-0.609c-0.137-0.1-0.297-0.148-0.479-0.148c-0.197,0-0.361,0.053-0.49,0.16
		s-0.238,0.307-0.33,0.598l-1.639,5.543H79.209z"/>
	<path fill="#575757" d="M89.775,82.547c-0.623-0.215-1.121-0.571-1.492-1.069c-0.373-0.498-0.74-1.154-1.105-1.967l-3.096-6.923
		l3.051-1.288l3.439,7.475c0.166,0.354,0.322,0.583,0.467,0.69c0.143,0.107,0.314,0.161,0.512,0.161c0.229,0,0.41-0.058,0.547-0.173
		c0.137-0.114,0.287-0.349,0.455-0.701l3.461-7.452l3.053,1.242l-3.121,6.785c-0.379,0.828-0.766,1.506-1.16,2.035
		c-0.396,0.529-0.92,0.916-1.572,1.162v5.611h-3.438V82.547z"/>
</g>
<text transform="matrix(0.9901 0 0 1 139.1113 88.136)" font-family="'ToyotaDisplay-Bold'" font-size="23">  </text>
<text transform="matrix(1.003 0 0 1 -17 67.2561)" font-family="'ToyotaDisplay-Regular'" font-size="22">   </text>
<g enable-background="new    ">
	<path fill="#8A8C8D" d="M2.307,51.394H4.47v6.688h8.208v-6.688h2.163v15.862h-2.163v-7.37H4.47v7.37H2.307V51.394z"/>
	<path fill="#8A8C8D" d="M18.15,51.394h10.945v1.782h-8.804v4.906h6.818v1.782h-6.818v5.609h8.981v1.782H18.15V51.394z"/>
	<path fill="#8A8C8D" d="M34.501,53.88c0.132-0.425,0.287-0.807,0.463-1.144c0.177-0.337,0.401-0.627,0.673-0.869
		c0.272-0.242,0.596-0.429,0.971-0.561c0.375-0.132,0.828-0.198,1.357-0.198c0.53,0,0.982,0.066,1.357,0.198
		c0.375,0.132,0.698,0.316,0.971,0.55c0.272,0.235,0.5,0.524,0.684,0.869c0.184,0.345,0.342,0.722,0.474,1.133l4.104,13.133
		l-2.074,0.484l-1.699-5.324H34.06l-1.677,5.324l-2.03-0.484L34.501,53.88z M41.232,60.348l-1.92-6.116
		c-0.162-0.513-0.346-0.861-0.552-1.045s-0.478-0.275-0.816-0.275c-0.353,0-0.633,0.092-0.838,0.275
		c-0.206,0.184-0.39,0.532-0.552,1.045l-1.942,6.116H41.232z"/>
	<path fill="#8A8C8D" d="M47.476,51.394h6.112c1.25,0,2.357,0.19,3.321,0.572c0.963,0.382,1.772,0.917,2.427,1.606
		c0.654,0.689,1.151,1.518,1.489,2.486c0.338,0.968,0.508,2.039,0.508,3.212c0,1.159-0.154,2.225-0.464,3.201
		c-0.309,0.976-0.78,1.819-1.412,2.53c-0.633,0.711-1.434,1.265-2.405,1.66c-0.971,0.396-2.126,0.595-3.464,0.595h-6.112V51.394z
		 M53.412,65.474c1.78,0,3.163-0.477,4.148-1.43c0.985-0.953,1.479-2.508,1.479-4.664s-0.493-3.729-1.479-4.719
		c-0.986-0.99-2.369-1.485-4.148-1.485h-3.773v12.298H53.412z"/>
	<path fill="#8A8C8D" d="M68.395,51.394h2.162v8.755c0,0.881,0.052,1.672,0.154,2.377c0.104,0.703,0.31,1.301,0.618,1.793
		c0.31,0.491,0.739,0.872,1.291,1.144s1.276,0.407,2.173,0.407c0.898,0,1.626-0.133,2.186-0.396
		c0.559-0.264,0.992-0.641,1.301-1.133c0.31-0.491,0.52-1.082,0.629-1.771c0.111-0.688,0.166-1.459,0.166-2.31v-8.866h2.162v8.954
		c0,1.056-0.088,2.028-0.264,2.915c-0.178,0.888-0.505,1.658-0.982,2.311c-0.479,0.652-1.137,1.162-1.975,1.529
		c-0.839,0.365-1.913,0.549-3.223,0.549c-1.323,0-2.401-0.168-3.232-0.506c-0.831-0.337-1.482-0.811-1.953-1.418
		c-0.471-0.609-0.791-1.343-0.959-2.201c-0.17-0.857-0.254-1.814-0.254-2.871V51.394z"/>
	<path fill="#8A8C8D" d="M84.48,51.394h5.869c0.736,0,1.432,0.092,2.086,0.275c0.654,0.184,1.229,0.48,1.721,0.891
		c0.493,0.411,0.883,0.935,1.17,1.573s0.43,1.405,0.43,2.299c0,0.734-0.143,1.401-0.43,2.002s-0.677,1.118-1.17,1.551
		c-0.492,0.432-1.078,0.77-1.754,1.012c-0.677,0.242-1.412,0.363-2.207,0.363h-3.553v5.896H84.48V51.394z M89.843,59.644
		c0.441,0,0.882-0.051,1.323-0.154c0.441-0.103,0.832-0.278,1.17-0.528s0.618-0.579,0.839-0.99c0.221-0.41,0.331-0.924,0.331-1.54
		c0-0.718-0.104-1.298-0.309-1.738c-0.207-0.44-0.482-0.777-0.828-1.012c-0.346-0.234-0.739-0.388-1.181-0.462
		c-0.44-0.073-0.897-0.11-1.368-0.11h-3.178v6.534H89.843z"/>
</g>
<text transform="matrix(1.003 0 0 1 147.1387 67.2561)" font-family="'ToyotaDisplay-Regular'" font-size="22">  </text>
</svg>
